<svg
  xmlns="http://www.w3.org/2000/svg"
  x="0px"
  y="0px"
  width="50"
  height="50"
  viewBox="0 0 172 172"
  style=" fill:#000000;"
><g transform=""><g
      fill="none"
      fill-rule="nonzero"
      stroke="none"
      stroke-width="1"
      stroke-linecap="butt"
      stroke-linejoin="miter"
      stroke-miterlimit="10"
      stroke-dasharray=""
      stroke-dashoffset="0"
      font-family="none"
      font-weight="none"
      font-size="none"
      text-anchor="none"
      style="mix-blend-mode: normal"
    ><path d="M0,172v-172h172v172z" fill="none" /><path d="" fill="none" /><g
        fill="#f1c40f"
      ><path
          d="M161.68,75.68h-44.72v-34.4c0,-5.68406 -4.63594,-10.32 -10.32,-10.32h-41.28c-5.68406,0 -10.32,4.63594 -10.32,10.32v20.64h-44.72c-5.68406,0 -10.32,4.63594 -10.32,10.32v64.67469c0,1.89469 1.54531,3.44 3.44,3.44h165.12c1.90813,0 3.44,-1.54531 3.44,-3.44v-50.91469c0,-5.68406 -4.63594,-10.32 -10.32,-10.32zM41.28,106.64h-17.2c0,-1.37062 0,-2.40531 0.34938,-3.44c0.33594,-1.03469 0.68531,-2.06937 1.02125,-3.09062c0.34937,-1.03469 1.03469,-2.06938 2.06937,-2.75469c0.68531,-1.03469 1.72,-1.72 2.75469,-2.75469l2.40531,-2.06937c0.68531,-0.68531 1.03469,-1.03469 1.37063,-1.37063c0.34937,-0.33594 0.69875,-1.03469 1.03469,-1.37062c0.34937,-0.34938 0.34937,-1.03469 0.34937,-1.38406c0,-0.68531 0,-1.02125 0,-2.05594c0,-2.40531 -1.03469,-3.44 -2.75469,-3.44c-0.68531,0 -1.37062,0 -1.72,0.33594c-0.34937,0.34937 -0.68531,0.69875 -1.03469,1.03469c-0.33594,0.34938 -0.33594,1.03469 -0.33594,1.72c0,0.68531 0,1.38406 0,2.06938h-5.50938v-1.03469c0,-2.75469 0.68531,-4.47469 2.06938,-5.84531c1.37062,-1.38406 3.44,-2.06938 6.53062,-2.06938c2.75469,0 4.81063,0.68531 6.19469,2.06938c1.37063,1.37062 2.05594,3.09062 2.05594,5.49594c0,1.03469 0,1.72 -0.33594,2.41875c0,0.68531 -0.34937,1.37062 -0.68531,2.05594c-0.34938,0.69875 -0.69875,1.38406 -1.38406,2.06938c-0.68531,0.68531 -1.37063,1.37062 -2.05594,2.06937l-3.10406,3.09063c-0.68531,0.68531 -1.37063,1.37062 -2.05594,2.05594c0,0.68531 -0.34938,1.38406 -0.34938,1.72h10.32zM89.44,75.68h-5.50937v-19.26937h-5.49594v-3.77594h0.33594c1.72,0 3.44,-0.34937 4.47469,-1.03469c1.03469,-0.68531 1.72,-1.72 2.06937,-3.44h4.12531zM147.92,115.58938c-0.34937,1.03469 -0.68531,1.72 -1.37062,2.75469c-0.69875,0.68531 -1.72,1.37062 -2.75469,2.05594c-1.03469,0.34938 -2.75469,0.68531 -4.47469,0.68531c-2.75469,0 -4.81062,-0.68531 -5.84531,-2.06938c-1.37062,-1.37062 -2.06937,-3.44 -2.06937,-6.18125h5.50937c-0.68531,1.02125 -0.34937,2.05594 0,3.09063c0.34938,0.68531 1.37063,1.37062 2.40531,1.37062c0.68531,0 1.37063,0 1.72,-0.34937c0.34938,-0.33594 0.68531,-0.68531 1.03469,-1.02125c0.33594,-0.33594 0.33594,-1.03469 0.33594,-1.37063c0,-0.68531 0,-1.03469 0,-1.72c0,-0.68531 0,-1.37062 0,-1.72c0,-0.68531 -0.33594,-1.03469 -0.68531,-1.37062c-0.33594,-0.34938 -0.68531,-0.69875 -1.03469,-1.03469c-0.33594,-0.34938 -1.03469,-0.34938 -1.72,-0.34938h-1.72v-3.78937h1.72c0.68531,0 1.03469,0 1.38406,-0.33594c0.33594,-0.34937 0.68531,-0.69875 1.02125,-1.03469c0.34938,-0.34937 0.34938,-0.68531 0.69875,-1.38406c0,-0.68531 0.33594,-1.02125 0.33594,-1.72c0,-1.37062 -0.33594,-2.40531 -0.68531,-2.74125c-0.34938,-0.69875 -1.03469,-0.69875 -2.06938,-0.69875c-0.68531,0 -1.02125,0 -1.37062,0.34938c-0.34938,0.34937 -0.68531,0.68531 -1.03469,1.03469c-0.33594,0.34938 -0.33594,1.03469 -0.33594,1.37063c0,0.68531 0,1.03469 0,1.72h-5.16c0,-2.75469 0.68531,-4.81063 2.06938,-6.19469c1.37062,-1.37062 3.42656,-2.05594 5.84531,-2.05594c2.40531,0 4.47469,0.68531 5.84531,1.72c1.37063,1.03469 2.06938,2.75469 2.06938,5.50938c0,1.72 -0.34938,3.09062 -1.03469,4.12531c-0.69875,1.03469 -1.72,1.72 -3.10406,2.05594c1.72,0.34937 3.09062,1.03469 3.78937,2.06937c0.68531,1.03469 1.03469,2.75469 1.03469,4.47469c0,1.03469 0,1.72 -0.34938,2.75469z"
        /></g></g></g></svg>
