<svg
  xmlns="http://www.w3.org/2000/svg"
  x="0px"
  y="0px"
  width="64"
  height="64"
  viewBox="0 0 172 172"
  style=" fill:#000000;"
><g
    fill="none"
    fill-rule="nonzero"
    stroke="none"
    stroke-width="1"
    stroke-linecap="butt"
    stroke-linejoin="miter"
    stroke-miterlimit="10"
    stroke-dasharray=""
    stroke-dashoffset="0"
    font-family="none"
    font-weight="none"
    font-size="none"
    text-anchor="none"
    style="mix-blend-mode: normal"
  ><path d="M0,172v-172h172v172z" fill="none" /><g><g><path
          d="M86,123.625c31.91406,0 44.93164,9.44826 50.20691,16.53441c3.4242,4.74395 8.89489,7.58337 14.74513,7.65309h0.32925c9.95837,0 18.03122,-8.07285 18.03122,-18.03122v-27.65628c0,0 -8.0625,-77.9375 -34.9375,-77.9375c-26.875,0 -26.875,13.4375 -48.375,13.4375c-21.5,0 -21.5,-13.4375 -48.375,-13.4375c-26.875,0 -34.9375,77.9375 -34.9375,77.9375v27.65628c0,9.95837 8.07285,18.03122 18.03122,18.03122h0.32925c5.85024,-0.06971 11.32093,-2.90914 14.74513,-7.65309c5.27527,-7.08618 18.29285,-16.53441 50.20691,-16.53441z"
          fill="#7bace6"
        /><path
          d="M69.875,69.875h-16.125v-16.125h-16.125v16.125h-16.125v16.125h16.125v16.125h16.125v-16.125h16.125z"
          fill="#ffffff"
        /><circle
          cx="46"
          cy="22"
          transform="scale(2.6875,2.6875)"
          r="3"
          fill="#ffffff"
        /><circle
          cx="46"
          cy="36"
          transform="scale(2.6875,2.6875)"
          r="3"
          fill="#ffffff"
        /><circle
          cx="53"
          cy="29"
          transform="scale(2.6875,2.6875)"
          r="3"
          fill="#ffffff"
        /><circle
          cx="39"
          cy="29"
          transform="scale(2.6875,2.6875)"
          r="3"
          fill="#ffffff"
        /></g></g></g></svg>
